<?xml version="1.0" encoding="utf-8"?>
<!-- Generator: Adobe Illustrator 14.0.0, SVG Export Plug-In . SVG Version: 6.00 Build 43363)  -->
<!DOCTYPE svg PUBLIC "-//W3C//DTD SVG 1.1//EN" "http://www.w3.org/Graphics/SVG/1.1/DTD/svg11.dtd">
<svg version="1.1" id="Layer_1" xmlns="http://www.w3.org/2000/svg" xmlns:xlink="http://www.w3.org/1999/xlink" x="0px" y="0px"
	 width="612px" height="792px" viewBox="0 0 612 792" enable-background="new 0 0 612 792" xml:space="preserve">
<g>
	<polygon fill-rule="evenodd" clip-rule="evenodd" fill="#FFFFFF" points="209,300 401.756,300 401.756,492.756 209,492.756 
		209,300 	"/>
	<path fill-rule="evenodd" clip-rule="evenodd" d="M238.399,339.432c0,2.425,0.101,5.154-0.102,7.479h-6.468l-0.202,0.202v10.512
		c2.123,0.202,4.447,0.101,6.569,0.101c0.101,2.123,0.203,4.548,0.101,6.873l-6.67,0.101c-0.101,8.086-0.101,16.778-0.101,25.066
		h-6.974l0.303-50.334l0.101-0.101L238.399,339.432L238.399,339.432z"/>
	<path fill-rule="evenodd" clip-rule="evenodd" d="M246.282,339.533l-0.202,50.334h-6.873l0.303-50.435c2.123-0.202,4.245,0,6.67,0
		L246.282,339.533L246.282,339.533z"/>
	<path fill-rule="evenodd" clip-rule="evenodd" d="M289.44,339.533c0.101,1.92,0,4.144,0,6.166c0.304,0.404,0.809,0.101,1.213,0.303
		v6.671c-0.405,0.303-1.415-0.202-1.213,0.505v15.06l-0.202,21.832c-2.124,0.101-4.549,0-6.772,0v-37.295
		c-0.405-0.203-1.011,0.202-1.112-0.303v-6.469c0.404-0.203,1.01,0.101,1.212-0.404v-6.064
		C284.892,339.533,287.216,339.533,289.44,339.533L289.44,339.533z"/>
	<path fill-rule="evenodd" clip-rule="evenodd" d="M385.964,342.06c0.707,1.112,0.707,2.931,0.101,4.144
		c-0.808,1.415-2.223,2.325-3.84,2.325c-1.517,0-2.83-0.809-3.639-2.123c-0.708-1.011-0.91-2.527-0.405-3.74
		c0.506-1.516,2.225-2.628,3.842-2.729S385.055,340.645,385.964,342.06L385.964,342.06z M380.405,341.251
		c-1.213,0.809-1.921,2.224-1.719,3.538c0.304,1.314,1.415,2.628,2.83,2.83c1.516,0.303,2.729-0.303,3.639-1.516
		c0.606-1.011,0.809-2.628,0-3.639C384.246,340.948,381.921,340.14,380.405,341.251L380.405,341.251z"/>
	<path fill-rule="evenodd" clip-rule="evenodd" d="M383.942,342.464c0.202,0.505,0,1.112-0.303,1.516
		c-0.102,0.101-0.304,0.101-0.404,0.202c0.809,0.505,0.606,1.617,0.909,2.426h-0.909c-0.404-0.606-0.102-1.617-0.81-2.022
		c-0.403,0-1.313-0.404-1.212,0.405v1.617h-0.606c-0.102-1.415-0.102-3.133-0.102-4.65l0.102-0.404
		C381.819,341.857,383.134,341.251,383.942,342.464L383.942,342.464z M381.517,342.464c-0.202,0.303-0.202,0.809,0,1.213
		c0.202,0,0.606,0,0.909-0.101c0.304,0,0.708-0.303,0.606-0.809C382.729,342.363,382.022,342.564,381.517,342.464L381.517,342.464z"
		/>
	<path fill-rule="evenodd" clip-rule="evenodd" d="M315.416,348.023v36.79c0.303,0.505,0.909,0.505,1.414,0.404
		c0.102-0.202,0.506-0.202,0.506-0.505l0.101-38.61l0.202-0.101l6.772,0.101v11.118l-0.202,32.849c-2.224,0.303-4.447,0-6.772,0.101
		c-0.201-0.303,0-0.808-0.201-1.111c-1.415,1.213-3.437,1.314-5.256,1.011c-1.617-0.505-3.134-2.021-3.538-3.639l0.102-29.715
		c0-3.639-0.102-7.581,0.202-10.714h6.671V348.023L315.416,348.023z"/>
	<path fill-rule="evenodd" clip-rule="evenodd" d="M351.094,347.113c0.809-0.202,1.719-1.011,2.729-1.011
		c1.516,0,2.931,0.202,3.941,1.415c0.404,0.607,0.809,1.112,0.91,1.819v15.666c-2.224,0.102-4.347,0-6.469,0
		c-0.102-3.739,0-7.681-0.102-12.027c-0.101-0.303-0.303-0.505-0.505-0.606c-0.506,0-0.91,0.202-1.112,0.506l-0.101,0.809
		l-0.102,36.486c-2.122,0.102-4.548,0.102-6.873,0l0.102-43.966c0.101,0,0.101-0.101,0.101-0.101c2.325,0,4.953,0,7.479,0V347.113
		L351.094,347.113z"/>
	<path fill-rule="evenodd" clip-rule="evenodd" d="M262.252,348.832c0.606,1.011,1.212,2.021,1.111,3.234v17.082h-8.085
		l-0.102,0.202l-0.101,14.352c0.101,0.303,0.202,0.606,0.606,0.708c0.202,0,0.606-0.202,0.606-0.505
		c0.101-4.447,0.202-7.479,0.101-12.128c2.325-0.101,4.548-0.101,6.974,0l-0.101,14.049c-0.809,2.325-3.335,4.043-5.66,4.245
		c-3.437,0.404-7.277,0-8.996-3.335c-0.505-0.708-0.404-1.718-0.404-2.729v-32.646c0.505-2.224,2.527-4.245,4.649-4.852
		C256.087,345.597,260.331,346.001,262.252,348.832L262.252,348.832z M256.39,352.268c-0.303-0.102-0.606-0.102-1.011,0
		c-0.203,3.538-0.101,6.468-0.101,10.411h1.112V352.268L256.39,352.268z"/>
	<path fill-rule="evenodd" clip-rule="evenodd" d="M300.255,347.315c0.202-0.404-0.202-1.213,0.405-1.416l5.76,0.102l0.202,0.202
		l-0.303,50.435c-0.304,1.617-1.415,3.234-2.931,4.043c-3.335,1.414-8.086,1.314-10.815-1.314c-2.425-2.83-0.809-7.58-1.313-10.916
		c2.223-0.303,4.649-0.101,6.873-0.202c0.202,2.83-0.202,5.054,0.101,7.378c0.203,0.303,0.607,0.303,0.91,0.303l0.404-0.505v-8.187
		c-0.505-0.303-1.01,0.303-1.516,0.303c-1.82,0.303-3.941,0.303-5.357-1.011c-0.708-0.708-1.112-1.718-1.415-2.628l0.202-32.242
		c0.202-2.224,1.011-4.548,3.234-5.559C296.616,345.597,298.941,345.698,300.255,347.315L300.255,347.315z M298.941,352.268
		c-0.202,0-0.505,0.202-0.606,0.404l-0.102,29.008c0.102,0.303,0.405,0.303,0.607,0.303c0.303,0,0.505,0,0.707-0.303l0.102-29.008
		C299.547,352.47,299.244,352.268,298.941,352.268L298.941,352.268z"/>
	<path fill-rule="evenodd" clip-rule="evenodd" d="M279.333,350.146l0.505,1.314v17.789h-8.086l-0.202,0.101l-0.101,14.655
		c0.202,0.101,0.404,0.505,0.607,0.505c1.212-0.101,0.505-1.516,0.808-2.021l0.101-10.612h6.671c0.303,4.548,0.101,9.5,0,14.15
		c-0.809,2.325-3.335,3.841-5.66,4.144c-3.032,0.404-6.064,0-8.086-2.122c-0.606-0.809-1.111-1.516-1.314-2.426l0.203-34.365
		c0.606-2.122,2.627-4.144,4.952-4.75C273.37,345.496,277.817,346.406,279.333,350.146L279.333,350.146z M271.752,352.672
		c-0.101,3.335-0.101,7.075,0,10.107h1.112l0.101-10.107C272.864,352.268,271.854,352.167,271.752,352.672L271.752,352.672z"/>
	<path fill-rule="evenodd" clip-rule="evenodd" d="M375.856,365.71l-0.202,24.561c-2.324,0.101-4.852,0.101-7.378,0
		c0-0.202-0.101-0.202-0.202-0.404c-2.123,0.809-5.054,0.707-6.873-0.606c-0.809-0.404-1.011-1.213-1.313-1.819l0.101-38.205
		c0.404-1.617,2.224-2.628,3.74-3.032c1.818-0.202,3.638,0.101,5.154,0.809l0.101-0.91v-6.166c2.021-0.303,4.549,0,6.873,0V365.71
		L375.856,365.71z M367.063,353.278l-0.202,30.726c0.102,0.303,0.102,0.708,0.505,0.708c0.102,0,0.606,0.303,0.708-0.203
		l0.202-30.827C368.276,353.076,367.366,352.875,367.063,353.278L367.063,353.278z"/>
	<path fill-rule="evenodd" clip-rule="evenodd" d="M341.188,349.741l0.304,0.707l-0.202,39.823l-6.671-0.102
		c-0.304-0.202,0-0.606-0.202-0.909c-1.921,1.213-4.852,1.313-6.873,0.303c-0.606-0.505-1.213-1.112-1.313-2.021l0.202-19.608
		c1.415-3.639,5.458-5.862,8.691-7.479v-6.974c-0.202-0.404-0.809-0.707-1.313-0.505c-0.707,0.303-0.505,1.112-0.606,1.718v5.054
		c-2.324,0.303-4.346,0-6.771,0.102l-0.102-8.086c0.606-2.628,2.729-4.852,5.256-5.458
		C335.327,345.597,339.471,346.305,341.188,349.741L341.188,349.741z M334.519,368.843c-0.91,0-1.011,1.011-1.314,1.517
		c-0.101,4.144,0,9.096,0,13.746l0.304,0.404c0.303,0.203,0.808,0,0.909-0.303L334.519,368.843L334.519,368.843z"/>
	<path fill-rule="evenodd" clip-rule="evenodd" fill="#E4494B" d="M289.238,391.787c0,6.266,0.101,13.645,0,19.912l-0.101,28.604
		l-0.102,17.686l-27.795-0.1l-36.891-0.102l-0.101-0.607l0.202-39.316l0.102-23.348c0-0.91-0.102-1.92,0.101-2.931
		C246.383,391.585,267.507,391.686,289.238,391.787L289.238,391.787z"/>
</g>
</svg>
